<svg width="1244" height="364" viewBox="0 0 1244 364" fill="none" xmlns="http://www.w3.org/2000/svg">
<path d="M1092.15 98.46C1100.19 109.29 1102.66 124.833 1103.38 138.136C1111.06 130.538 1115.57 119.487 1143.13 123.631C1160.4 123.631 1184.76 138.686 1190.11 146.424C1198.22 158.165 1202.55 158.856 1213.91 193.774C1220.52 214.11 1216.75 243.045 1207.04 262.458C1205.29 265.948 1196.65 272.171 1202.55 275.274C1207.34 277.796 1212.7 280.342 1216.67 284.176C1225.53 292.723 1244 304.556 1244 318.096C1244 324.674 1239.55 334.288 1239.55 337.742C1221.89 344.648 1201.51 340.547 1195.64 341.195C1165.51 344.52 1173.4 351.478 1143.13 351.478C1125.73 351.478 1101.38 346.607 1084.32 351.478C1068.63 355.962 1065.22 355.582 1049.85 358.462C1038.19 360.648 1016.68 357.081 1004.87 357.081C954.845 357.081 902.41 360.385 852.945 351.555C835.611 348.461 816.766 350.1 799.361 351.862C787.634 353.049 776.32 356.026 764.816 358.462C736.139 364.533 707.374 363.987 678.222 363.987H458.819C434.255 363.987 410.469 364.222 386.197 360.457C367.552 357.565 348.299 356.203 329.542 354.318C306.326 351.985 283.522 347.202 260.298 344.955C248.25 343.79 235.779 344.648 223.68 344.648H136.472C91.8095 344.648 47.643 339.635 3.97037 330.144C-6.80318 327.803 7.30709 305.506 11.4936 301.059C16.1515 296.112 27.7955 291.466 34.2169 291.466C68.0375 291.466 111.047 291.198 140.54 273.509C145.123 270.76 148.163 266.83 151.825 262.995C168.261 245.782 191.914 243.809 214.544 243.809C236.357 243.809 247.7 245.515 269.455 243.809C275.162 243.362 293.356 241.387 295.611 235.444C305.697 208.863 321.065 185.397 336.912 161.849C346.764 147.209 361.93 134.004 379.595 130.538C394.46 127.622 408.873 123.166 423.813 120.869C435.087 119.135 446.375 119.487 457.745 119.487C463.402 119.487 474.872 121.817 479.24 118.106C480.874 116.717 481.4 111.839 482.31 109.818C489.656 93.4987 492.864 90.4708 506.714 77.398L507.49 76.6653C517.163 67.533 564.21 53.5154 587.175 47.3498C611.854 40.7239 648.591 37.7685 673.999 41.4407C698.078 44.9208 712.928 47.8113 736.028 56.0217C744.214 58.9313 752.351 62.7435 759.058 67.533C759.65 63.6852 760.715 59.6602 762.052 56.0217C772.312 28.1018 788.358 8.40708 818.4 3.45339C833.942 0.89055 847.62 0 863.309 0C879.66 0 898.719 3.66863 915.033 6.80877L916.739 7.137C952.458 14.0038 985.313 25.7654 1017.61 42.2848C1045.67 56.6373 1072.95 72.5613 1092.15 98.46Z" fill="url(#paint0_linear_3_28)"/>
<defs>
<linearGradient id="paint0_linear_3_28" x1="811.5" y1="199.5" x2="877.5" y2="409" gradientUnits="userSpaceOnUse">
<stop stop-color="#EFC3E6"/>
<stop offset="1" stop-color="#B8BEDD"/>
</linearGradient>
</defs>
</svg>
